<svg width="48" height="49" viewBox="0 0 48 49" fill="none" xmlns="http://www.w3.org/2000/svg">
<path d="M23.9167 47C36.0209 47 45.8334 36.9264 45.8334 24.5C45.8334 12.0736 36.0209 2 23.9167 2C11.8124 2 2 12.0736 2 24.5C2 36.9264 11.8124 47 23.9167 47Z" stroke="white" stroke-width="4"/>
<path d="M25.7083 32.4532V39.2505H22.5003V32.8329C21.2161 32.798 20.2469 32.7367 19.5939 32.6484C19.2671 32.6079 18.8958 32.5438 18.479 32.4583C18.0622 32.3733 17.6004 32.2653 17.0936 32.1354V27.1876C18.3772 28.3711 19.8869 28.9629 21.6217 28.9629C22.9801 28.9629 23.6591 28.6243 23.6591 27.947C23.6591 27.5094 23.1995 27.0644 22.2809 26.6122L20.9805 25.976C19.6063 25.3123 18.609 24.6491 17.9896 23.9847C17.3923 23.3142 17.0941 22.565 17.0941 21.737C17.0941 19.3284 18.9729 17.6476 22.7304 16.697V10.0831H25.9389V16.5738C27.335 16.6829 28.7266 16.9467 30.1121 17.3641V22.1679C28.6591 21.0389 27.236 20.4736 25.8433 20.4736C25.3151 20.4736 24.8842 20.5608 24.5523 20.7357C24.2199 20.9107 24.0534 21.1346 24.0534 21.4079C24.0534 21.7567 24.6119 22.1915 25.7285 22.7113L27.1218 23.3576C27.7642 23.6585 28.3154 23.9651 28.7773 24.2767C29.2391 24.5877 29.6165 24.9129 29.9096 25.2515C30.2026 25.5901 30.4192 25.9479 30.5598 26.3242C30.7004 26.7005 30.7713 27.1038 30.7713 27.5347C30.7702 29.8291 29.0827 31.4677 25.7083 32.4532Z" fill="white"/>
<path d="M24.095 41.9482C33.8786 41.9482 41.8098 34.1787 41.8098 24.5945C41.8098 15.0103 33.8786 7.24081 24.095 7.24081C14.3114 7.24081 6.38019 15.0103 6.38019 24.5945C6.38019 34.1787 14.3114 41.9482 24.095 41.9482Z" stroke="white" stroke-width="2"/>
</svg>
