<svg width="79" height="60" viewBox="0 0 79 60" fill="none" xmlns="http://www.w3.org/2000/svg">
<path d="M1.32678 26.0146L27.6549 2.67285L54.4927 26.4674" stroke="#2D483D" stroke-width="4"/>
<path d="M10.2731 27.6007V48.9021" stroke="#2D483D" stroke-width="4"/>
<path d="M44.525 28.507V49.8091" stroke="#2D483D" stroke-width="4"/>
<path d="M36.3454 37.5708H23.054V46.6363H36.3454V37.5708Z" stroke="#2D483D" stroke-width="3"/>
<path d="M45.919 9.15227L42.0421 6.19739L38.2095 10.1499L42.0864 13.1048L45.919 9.15227Z" stroke="#2D483D" stroke-width="2"/>
<path d="M61.6454 49.1253C66.0196 49.1253 69.5656 45.9302 69.5656 41.9888C69.5656 38.0475 66.0196 34.8524 61.6454 34.8524C57.2713 34.8524 53.7253 38.0475 53.7253 41.9888C53.7253 45.9302 57.2713 49.1253 61.6454 49.1253Z" stroke="#2D483D" stroke-width="4"/>
<path d="M76.8463 54.4064L73.6915 57.6729L65.1096 49.1045L68.2644 45.8389L76.8463 54.4064Z" stroke="#2D483D" stroke-width="3"/>
</svg>
