<svg width="84" height="57" viewBox="0 0 84 57" fill="none" xmlns="http://www.w3.org/2000/svg">
<path d="M81.999 18.203C81.999 21.558 79.278 24.279 75.923 24.279H47.064C43.707 24.279 40.987 21.558 40.987 18.203V8.07599C40.987 4.72099 43.707 2 47.064 2H75.923C79.278 2 81.999 4.72099 81.999 8.07599V18.203Z" stroke="#2D483D" stroke-width="4"/>
<path d="M43.012 40.4819C43.012 43.8359 40.291 46.5569 36.936 46.5569H8.076C4.72 46.5569 2 43.8359 2 40.4819V30.3549C2 26.9999 4.72 24.2789 8.076 24.2789H36.936C40.291 24.2789 43.012 26.9999 43.012 30.3549V40.4819Z" stroke="#2D483D" stroke-width="4"/>
<path d="M2.70898 45.931L9.95498 56.138L17.201 45.931H2.70898Z" fill="#2D483D"/>
<path d="M65.24 23.978L72.486 34.185L79.732 23.978H65.24Z" fill="#2D483D"/>
<path d="M9.59399 32.886C15.254 31.297 21.746 35.063 26.809 32.886" stroke="#2D483D" stroke-width="2"/>
<path d="M11.776 38.475C17.436 36.787 23.928 40.788 28.991 38.475" stroke="#2D483D" stroke-width="2"/>
<path d="M50.354 16.683C51.6121 16.683 52.632 15.6631 52.632 14.405C52.632 13.1468 51.6121 12.127 50.354 12.127C49.0959 12.127 48.076 13.1468 48.076 14.405C48.076 15.6631 49.0959 16.683 50.354 16.683Z" fill="#2D483D"/>
<path d="M59.215 16.683C60.4731 16.683 61.493 15.6631 61.493 14.405C61.493 13.1468 60.4731 12.127 59.215 12.127C57.9569 12.127 56.937 13.1468 56.937 14.405C56.937 15.6631 57.9569 16.683 59.215 16.683Z" fill="#2D483D"/>
<path d="M68.834 16.683C70.0921 16.683 71.112 15.6631 71.112 14.405C71.112 13.1468 70.0921 12.127 68.834 12.127C67.5759 12.127 66.556 13.1468 66.556 14.405C66.556 15.6631 67.5759 16.683 68.834 16.683Z" fill="#2D483D"/>
</svg>
