<svg width="56" height="77" viewBox="0 0 56 77" fill="none" xmlns="http://www.w3.org/2000/svg">
<path d="M7.64282 32.3433C7.64282 32.3433 5.83487 65.7037 38.4547 70.479" stroke="#2D483D" stroke-width="10"/>
<path d="M29.6215 72.4766C29.6215 72.4766 40.1786 83.3035 48.6242 67.1057C51.8541 60.9132 30.3662 57.5847 30.3662 57.5847C30.3662 57.5847 25.8455 61.5937 29.6215 72.4766Z" fill="#2D483D"/>
<path d="M3.17502 33.0959C3.17502 33.0959 -7.91688 19.9302 11.3628 12.21C18.7347 9.25711 20.1222 33.939 20.1222 33.939C20.1222 33.939 15.0804 38.6006 3.17502 33.0959Z" fill="#2D483D"/>
<path d="M30.6875 14.4413L43.1171 1.01914" stroke="#2D483D" stroke-width="3"/>
<path d="M36.081 29.2322L55 27.1605" stroke="#2D483D" stroke-width="3"/>
<path d="M37 18.0192L54 11.0192" stroke="#2D483D" stroke-width="3"/>
</svg>
