<svg width="128" height="96" viewBox="0 0 128 96" fill="none" xmlns="http://www.w3.org/2000/svg">
<path d="M0 66.7736H2.91006V78.5787H9.89373V81.1685H0V66.7736Z" fill="#2F2A28"/>
<path d="M18.4262 81.1694H15.5162V66.7736H18.4262V81.1694Z" fill="#2F2A28"/>
<path d="M25.0425 66.8003H35.0115V69.3251H27.9517V72.6312H34.1387V75.1169H27.9517V81.1694H25.0417L25.0425 66.8003Z" fill="#2F2A28"/>
<path d="M51.1479 69.325H43.7464V72.3838H50.5406V74.8828H43.7464V78.5796H51.4888V81.1694H40.8882V66.7736H51.1487L51.1479 69.325Z" fill="#2F2A28"/>
<path d="M66.6099 67.1451C67.1249 67.3725 67.5613 67.7082 67.9192 68.1505C68.2156 68.5153 68.4496 68.9185 68.6228 69.3608C68.7953 69.8032 68.8811 70.3079 68.8811 70.8736C68.8811 71.5566 68.7135 72.2288 68.3783 72.8894C68.0423 73.55 67.4876 74.0173 66.7144 74.2905C67.3597 74.557 67.8164 74.9369 68.0852 75.4284C68.354 75.9198 68.4884 76.6704 68.4884 77.6799V78.6479C68.4884 79.3051 68.5143 79.7516 68.5662 79.9857C68.6439 80.3572 68.8245 80.6304 69.1087 80.8062V81.1685H65.8788C65.7889 80.8487 65.7249 80.5921 65.6861 80.3963C65.6091 79.9932 65.5678 79.5792 65.5614 79.1552L65.5419 77.8166C65.5298 76.8978 65.3759 76.2855 65.0804 75.9798C64.7849 75.6733 64.231 75.52 63.4181 75.52H60.5696V81.1685H57.7105V66.7736H64.4019C65.3589 66.7936 66.0941 66.9168 66.6099 67.1451ZM60.5704 69.26V73.1385H63.7136C64.3379 73.1385 64.8059 73.0602 65.1185 72.9036C65.6707 72.6295 65.9468 72.0881 65.9468 71.2776C65.9468 70.4029 65.6796 69.8157 65.1452 69.5149C64.8448 69.3458 64.3946 69.26 63.7938 69.26H60.5704Z" fill="#2F2A28"/>
<path d="M86.3431 79.8915C85.2857 81.0118 83.7586 81.5724 81.7594 81.5724C79.7595 81.5724 78.2316 81.0118 77.1749 79.8915C75.7579 78.5179 75.0494 76.5378 75.0494 73.9514C75.0494 71.3133 75.7579 69.3333 77.1749 68.0113C78.2316 66.8909 79.7595 66.3303 81.7594 66.3303C83.7586 66.3303 85.2857 66.8909 86.3431 68.0113C87.7536 69.3333 88.4597 71.3133 88.4597 73.9514C88.4597 76.5378 87.7536 78.5179 86.3431 79.8915ZM84.5173 77.7023C85.1974 76.8235 85.5375 75.5724 85.5375 73.9514C85.5375 72.337 85.1974 71.0875 84.5173 70.2054C83.8371 69.3233 82.9189 68.8818 81.7627 68.8818C80.6048 68.8818 79.6817 69.3216 78.9927 70.2004C78.3028 71.0801 77.9595 72.3304 77.9595 73.9514C77.9595 75.5724 78.3036 76.8235 78.9927 77.7023C79.6817 78.582 80.6048 79.021 81.7627 79.021C82.9197 79.021 83.8379 78.582 84.5173 77.7023Z" fill="#2F2A28"/>
<path d="M105.345 79.8915C104.288 81.0118 102.761 81.5724 100.761 81.5724C98.7614 81.5724 97.2335 81.0118 96.1769 79.8915C94.7599 78.5179 94.0506 76.5378 94.0506 73.9514C94.0506 71.3133 94.7599 69.3333 96.1769 68.0113C97.2335 66.8909 98.7614 66.3303 100.761 66.3303C102.761 66.3303 104.288 66.8909 105.345 68.0113C106.756 69.3333 107.461 71.3133 107.461 73.9514C107.461 76.5378 106.756 78.5179 105.345 79.8915ZM103.519 77.7023C104.199 76.8235 104.539 75.5724 104.539 73.9514C104.539 72.337 104.199 71.0875 103.519 70.2054C102.839 69.3233 101.921 68.8818 100.764 68.8818C99.6068 68.8818 98.6845 69.3216 97.9947 70.2004C97.3048 71.0801 96.9607 72.3304 96.9607 73.9514C96.9607 75.5724 97.3056 76.8235 97.9947 77.7023C98.6845 78.582 99.6068 79.021 100.764 79.021C101.921 79.021 102.839 78.582 103.519 77.7023Z" fill="#2F2A28"/>
<path d="M122.844 66.7736H127.045V81.1685H124.325V71.4325C124.325 71.1526 124.329 70.7594 124.335 70.2555C124.342 69.7515 124.345 69.3617 124.345 69.0884L121.695 81.1694H118.854L116.223 69.0884C116.223 69.3617 116.226 69.7515 116.232 70.2555C116.239 70.7594 116.242 71.1526 116.242 71.4325V81.1685H113.522V66.7736H117.772L120.318 78.0923L122.844 66.7736Z" fill="#2F2A28"/>
<path d="M24.6894 89.8134C25.146 89.8134 25.4278 89.9825 25.593 90.2624C25.6804 90.4132 25.7193 90.5923 25.7193 90.8022C25.7193 90.9521 25.6999 91.112 25.661 91.282C25.1849 93.4211 23.2416 95.1512 20.5404 95.5502C20.5113 95.5602 20.4821 95.5602 20.453 95.5602C20.2295 95.5602 20.0741 95.4203 20.0449 95.1904C20.0352 95.1612 20.0352 95.1312 20.0352 95.1013C20.0352 94.8913 20.1615 94.7414 20.3753 94.7014C22.7169 94.3324 24.3784 92.913 24.8059 91.1437C24.8254 91.0737 24.8351 91.0038 24.8351 90.9438C24.8351 90.753 24.7282 90.6447 24.4076 90.6447H18.704C18.5 90.6447 18.3737 90.4448 18.3737 90.2349C18.3737 90.015 18.5 89.8151 18.704 89.8151H24.6894V89.8134ZM24.7768 87.4744C24.9808 87.4744 25.1169 87.6651 25.1169 87.8842C25.1169 88.0941 24.9808 88.304 24.7768 88.304H19.4522C19.2482 88.304 19.1121 88.0941 19.1121 87.8842C19.1121 87.6643 19.2482 87.4744 19.4522 87.4744H24.7768Z" fill="#5D666A"/>
<path d="M33.6675 95.2222C33.6675 95.4713 33.4829 95.6012 33.24 95.6012C32.9874 95.6012 32.8028 95.4813 32.8028 95.2114V90.7032C31.6465 91.4138 30.4417 91.9827 29.3437 92.3517C29.266 92.3825 29.198 92.3925 29.1299 92.3925C28.9648 92.3925 28.8482 92.3026 28.7704 92.1127C28.7607 92.0618 28.751 92.0127 28.751 91.9627C28.751 91.8028 28.8482 91.6328 29.0425 91.5629C30.1793 91.183 31.4813 90.5733 32.7833 89.7036C33.8521 88.9939 34.6391 88.3142 35.4262 87.3954C35.5136 87.2955 35.6399 87.2355 35.7565 87.2355C35.8537 87.2355 35.9509 87.2655 36.0383 87.3354C36.1549 87.4246 36.2132 87.5453 36.2132 87.6653C36.2132 87.7544 36.1743 87.8452 36.1063 87.9352C35.5039 88.6449 34.6586 89.4138 33.6675 90.1235V95.2222Z" fill="#5D666A"/>
<path d="M46.0655 87.8442C46.5319 87.8442 46.8137 87.9642 46.9983 88.2041C47.144 88.384 47.2023 88.6347 47.2023 88.9238C47.2023 89.0129 47.1926 89.1037 47.1829 89.2037C46.7651 92.2424 44.7246 94.5215 41.4988 95.3412C41.4405 95.3612 41.3822 95.3712 41.3239 95.3712C41.1393 95.3712 41.013 95.2712 40.9547 95.0913C40.945 95.0405 40.9352 94.9805 40.9352 94.9313C40.9352 94.7314 41.0518 94.5707 41.2462 94.5115C44.0445 93.7518 45.9489 91.8618 46.2695 89.1737C46.2793 89.1237 46.2793 89.0737 46.2793 89.0238C46.2793 88.7639 46.1529 88.6939 45.8517 88.6939H40.1871C39.9636 88.6939 39.8373 88.514 39.8373 88.2641C39.8373 88.0242 39.9733 87.8442 40.1871 87.8442H46.0655Z" fill="#5D666A"/>
<path d="M51.8177 87.7844C51.8177 87.5345 51.9828 87.3746 52.2355 87.3746C52.4784 87.3746 52.663 87.5253 52.663 87.7952V89.9544C52.663 91.5637 52.4687 92.7332 52.1286 93.5521C51.7885 94.3326 51.3124 94.9815 50.7586 95.4013C50.642 95.5021 50.5157 95.5412 50.3991 95.5412C50.2727 95.5412 50.1464 95.4821 50.0687 95.3821C49.991 95.293 49.9618 95.1914 49.9618 95.0831C49.9618 94.9432 50.0298 94.8132 50.1562 94.7324C50.6517 94.3725 51.0792 93.8528 51.361 93.163C51.6525 92.4134 51.8177 91.4138 51.8177 89.8844V87.7844ZM54.3634 87.7144C54.3634 87.4645 54.5188 87.3154 54.7812 87.3154C55.0241 87.3154 55.2087 87.4654 55.2087 87.7144L55.1698 94.1127C55.1698 94.2918 55.2475 94.3925 55.4127 94.3925C55.4807 94.3925 55.5779 94.3726 55.6945 94.3226C56.7827 93.8328 57.3366 92.9431 57.8321 91.8527C57.9098 91.6936 58.0167 91.6237 58.1528 91.6237C58.2208 91.6237 58.2985 91.6428 58.3665 91.6836C58.5025 91.7428 58.59 91.8827 58.59 92.0435C58.59 92.0935 58.5803 92.1535 58.5511 92.2234C57.9584 93.7328 56.773 94.9623 55.6265 95.2522C55.4516 95.293 55.2961 95.3122 55.1601 95.3122C54.616 95.3122 54.3245 94.9915 54.3245 94.3526L54.3634 87.7144Z" fill="#5D666A"/>
<path d="M61.1551 91.9028C60.9122 91.9028 60.7762 91.7429 60.7762 91.473C60.7762 91.2131 60.9122 91.0223 61.1648 91.0223H68.5388C68.7914 91.0223 68.9274 91.2131 68.9274 91.473C68.9274 91.742 68.7914 91.9028 68.5485 91.9028H61.1551Z" fill="#5D666A"/>
<path d="M78.2454 93.5122C77.7895 92.5326 77.2349 91.463 76.681 90.5634C76.6422 90.4934 76.6227 90.4234 76.6227 90.3535C76.6227 90.2135 76.6907 90.0844 76.817 90.0236C76.8851 89.9928 76.9434 89.9828 77.0114 89.9828C77.1571 89.9828 77.2932 90.0627 77.3911 90.2027C78.2551 91.543 79.1296 93.2723 79.6737 94.6917C79.7125 94.7917 79.7312 94.8724 79.7312 94.9516C79.7312 95.1415 79.6251 95.2815 79.421 95.3614C79.353 95.3906 79.2947 95.4006 79.2267 95.4006C79.0713 95.4006 78.9449 95.3114 78.8866 95.1515C78.7895 94.8608 78.6826 94.6117 78.5369 94.271C76.6802 94.6309 74.0965 94.9008 71.7937 94.9899C71.7831 94.9899 71.7637 94.9899 71.754 94.9899C71.5216 94.9899 71.3459 94.84 71.3362 94.5909C71.3362 94.5709 71.3362 94.5509 71.3362 94.5409C71.3362 94.281 71.4819 94.1011 71.6949 94.1011C71.8123 94.0911 71.9289 94.0911 72.0455 94.0911C72.1621 94.0911 72.2787 94.0911 72.3953 94.0911C73.3766 92.0219 74.2122 89.6421 74.7669 87.5038C74.8349 87.2539 74.9604 87.1539 75.1547 87.1539C75.1936 87.1539 75.2422 87.1539 75.281 87.1639C75.5045 87.2139 75.6406 87.3738 75.6406 87.5946C75.6406 87.6446 75.63 87.6937 75.6211 87.7345C75.0478 89.8637 74.1637 92.2119 73.2989 94.0519C74.9232 93.992 76.9247 93.7629 78.2454 93.5122Z" fill="#5D666A"/>
<path d="M82.114 88.1343C81.9197 88.1343 81.8314 87.9444 81.8314 87.7445C81.8314 87.5446 81.9189 87.3846 82.114 87.3846H90.3624C90.5479 87.3846 90.6442 87.5437 90.6442 87.7445C90.6442 87.9452 90.5479 88.1343 90.3624 88.1343H87.1075C86.9131 88.5242 86.6994 88.9149 86.4556 89.2739V95.6713C86.4556 95.8812 86.301 96.0011 86.0573 96.0011C85.8144 96.0011 85.6589 95.8803 85.6589 95.6713V91.4838C85.6589 91.084 85.6889 90.6641 85.7374 90.2635C84.7075 91.533 83.4638 92.5934 82.2784 93.2831C82.2201 93.3122 82.1521 93.333 82.0938 93.333C81.9578 93.333 81.8314 93.2431 81.7432 93.1123C81.6946 93.0323 81.6752 92.9532 81.6752 92.8732C81.6752 92.7433 81.7335 92.6225 81.8509 92.5625C83.5699 91.5829 85.2419 90.0244 86.233 88.1352L82.114 88.1343ZM87.3698 89.8736C87.467 89.8736 87.5641 89.9236 87.6321 90.0144C88.3908 91.004 89.5746 91.9328 90.5762 92.4226C90.7219 92.4926 90.7997 92.6225 90.7997 92.7733C90.7997 92.8532 90.7802 92.9232 90.7414 93.0032C90.6539 93.1531 90.5373 93.2323 90.4013 93.2323C90.3333 93.2323 90.2653 93.2131 90.1876 93.1723C89.1479 92.6125 87.9722 91.6629 87.0775 90.5234C87.0095 90.4434 86.9714 90.3534 86.9714 90.2635C86.9714 90.1643 87.02 90.0636 87.1172 89.9836C87.2046 89.9136 87.2921 89.8736 87.3698 89.8736Z" fill="#5D666A"/>
<path d="M95.3373 94.7014C95.9009 94.6315 96.4353 94.5515 96.9114 94.4624C96.9397 94.4515 96.9697 94.4515 96.998 94.4515C97.134 94.4515 97.2118 94.5415 97.2312 94.7014C97.2417 94.7214 97.2417 94.7522 97.2417 94.7714C97.2417 94.9313 97.1437 95.0221 96.9794 95.0621C95.7745 95.302 94.1519 95.5119 92.7916 95.6219C92.7819 95.6219 92.7616 95.6219 92.7519 95.6219C92.5673 95.6219 92.441 95.5019 92.4216 95.282C92.4216 95.262 92.4216 95.252 92.4216 95.232C92.4216 95.0413 92.539 94.9213 92.7042 94.9113C93.3357 94.8922 94.0159 94.8414 94.6774 94.7814V94.0117H92.8993C92.7438 94.0117 92.6467 93.8826 92.6467 93.7027C92.6467 93.5319 92.743 93.4028 92.8993 93.4028H94.6774V92.823H93.5114C93.0062 92.823 92.7835 92.6431 92.7835 92.1833V90.3141C92.7835 89.8534 93.0062 89.6743 93.5114 89.6743H94.6774V89.1345H92.6944C92.5301 89.1345 92.4418 89.0046 92.4418 88.8247C92.4418 88.6447 92.5293 88.5248 92.6944 88.5248H94.6774V87.885C94.0936 87.945 93.5203 87.995 93.0062 88.015C92.9965 88.015 92.9965 88.015 92.9876 88.015C92.8216 88.015 92.6953 87.8942 92.6855 87.6851C92.6855 87.6751 92.6855 87.6751 92.6855 87.666C92.6855 87.4952 92.8029 87.3753 92.977 87.3753C94.1624 87.3453 95.6207 87.1653 96.6992 86.8555C96.7276 86.8455 96.7567 86.8455 96.7859 86.8455C96.9316 86.8455 97.0385 86.9454 97.0765 87.0954C97.0871 87.1354 97.096 87.1762 97.096 87.2053C97.096 87.3653 96.9988 87.4752 96.8531 87.5052C96.4061 87.6152 95.8814 87.7151 95.3373 87.7959V88.5248H97.1065C97.2612 88.5248 97.3591 88.6456 97.3591 88.8247C97.3591 89.0038 97.262 89.1345 97.1065 89.1345H95.3373V89.6743H96.5324C97.0385 89.6743 97.2612 89.8534 97.2612 90.3141V92.1833C97.2612 92.6431 97.0385 92.823 96.5324 92.823H95.3373V93.4028H96.9891C97.1437 93.4028 97.232 93.5319 97.232 93.7027C97.232 93.8826 97.1446 94.0117 96.9891 94.0117H95.3373V94.7014ZM93.6758 90.2333C93.5106 90.2333 93.4321 90.2932 93.4321 90.4532V90.973H94.6766V90.2333H93.6758ZM93.4321 91.5027V92.0525C93.4321 92.2116 93.5106 92.2624 93.6758 92.2624H94.6766V91.5027H93.4321ZM96.6199 90.973V90.4532C96.6199 90.2941 96.5421 90.2333 96.377 90.2333H95.3373V90.973H96.6199ZM96.377 92.2624C96.5421 92.2624 96.6199 92.2116 96.6199 92.0525V91.5027H95.3373V92.2624H96.377ZM98.6117 88.9338C98.6304 88.3549 98.6304 87.7351 98.6304 87.0845C98.6304 86.9046 98.7672 86.7938 98.9907 86.7938C99.2133 86.7938 99.3494 86.9046 99.3494 87.0845C99.3494 87.6743 99.3494 88.304 99.3307 88.9338H100.379C100.953 88.9338 101.225 89.1845 101.225 89.7734C101.206 91.9426 101.108 93.9126 100.837 95.0013C100.701 95.5811 100.342 95.8201 99.7486 95.8201C99.389 95.8201 99.0587 95.801 98.8061 95.721C98.6797 95.691 98.5834 95.5611 98.5834 95.3911C98.5834 95.362 98.5931 95.3212 98.602 95.2812C98.6514 95.1013 98.7672 94.9905 98.8927 94.9905C98.9121 94.9905 98.9324 94.9905 98.9607 95.0013C99.155 95.0613 99.3988 95.0821 99.6125 95.0821C99.9234 95.0821 100.079 94.9813 100.147 94.7214C100.37 93.8018 100.506 91.7918 100.506 89.9226C100.506 89.7026 100.409 89.6427 100.215 89.6427H99.3008C99.2522 90.903 99.1267 92.1225 98.8741 93.0121C98.5729 94.0809 98.1543 94.9713 97.5526 95.701C97.4652 95.811 97.3478 95.871 97.2417 95.871C97.1543 95.871 97.066 95.841 96.9891 95.771C96.9114 95.691 96.8628 95.5911 96.8628 95.4911C96.8628 95.3912 96.9025 95.292 96.9802 95.2012C97.5429 94.5915 97.9227 93.741 98.2045 92.7122C98.4182 91.9426 98.5251 90.883 98.5842 89.6427H97.6603C97.4952 89.6427 97.398 89.5027 97.398 89.2928C97.398 89.0829 97.4952 88.933 97.6603 88.933L98.6117 88.9338Z" fill="#5D666A"/>
<path d="M109.951 88.323C109.805 88.7137 109.62 89.0827 109.427 89.4434H111.681C111.856 89.4434 111.943 89.5833 111.943 89.7732C111.943 89.964 111.856 90.1131 111.681 90.1131H104.996C104.676 90.1131 104.578 90.2239 104.578 90.5038C104.578 91.4134 104.529 92.5329 104.422 93.3718C104.326 94.1123 104.122 94.9711 103.8 95.6109C103.693 95.8208 103.587 95.9107 103.451 95.9107C103.383 95.9107 103.315 95.8907 103.227 95.8408C103.102 95.7608 103.013 95.6708 103.013 95.5309C103.013 95.4609 103.042 95.3718 103.091 95.271C103.374 94.7412 103.587 94.0107 103.703 93.1519C103.81 92.3222 103.84 91.2418 103.84 90.3322C103.84 89.7324 104.17 89.4434 104.772 89.4434H106.044C105.938 89.0535 105.791 88.6837 105.598 88.323H104.013C103.859 88.323 103.77 88.1731 103.77 87.984C103.77 87.814 103.858 87.6641 104.013 87.6641H107.375V87.0235C107.375 86.8136 107.53 86.7336 107.744 86.7336C107.959 86.7336 108.132 86.8136 108.132 87.0235V87.6641H111.534C111.688 87.6641 111.786 87.804 111.786 87.984C111.786 88.1639 111.689 88.323 111.534 88.323H109.951ZM111.719 95.0911C111.894 95.0911 111.991 95.221 111.991 95.4309C111.991 95.6508 111.894 95.77 111.719 95.77H104.801C104.636 95.77 104.529 95.6408 104.529 95.4309C104.529 95.221 104.636 95.0911 104.801 95.0911H107.861V93.7908H105.976C105.821 93.7908 105.723 93.67 105.723 93.4709C105.723 93.271 105.821 93.161 105.976 93.161H107.861V92.0215H106.112C105.889 92.4613 105.636 92.8411 105.364 93.181C105.286 93.2818 105.179 93.3318 105.073 93.3318C104.995 93.3318 104.908 93.3018 104.84 93.2418C104.753 93.1718 104.704 93.0727 104.704 92.9819C104.704 92.8911 104.743 92.802 104.811 92.722C105.297 92.1514 105.676 91.3618 105.908 90.6529C105.957 90.5029 106.063 90.433 106.21 90.433C106.259 90.433 106.297 90.443 106.346 90.4521C106.521 90.5029 106.608 90.6221 106.608 90.7512C106.608 90.792 106.598 90.8211 106.589 90.862C106.531 91.0419 106.472 91.2118 106.404 91.3809H107.861V90.712C107.861 90.5313 107.997 90.4321 108.212 90.4321C108.445 90.4321 108.571 90.5313 108.571 90.712V91.3809H111.233C111.399 91.3809 111.485 91.4917 111.485 91.6916C111.485 91.8915 111.399 92.0215 111.233 92.0215H108.571V93.161H110.845C111.01 93.161 111.097 93.271 111.097 93.4709C111.097 93.6808 111.011 93.7908 110.845 93.7908H108.571V95.0911H111.719ZM106.395 88.323C106.56 88.6837 106.706 89.0535 106.813 89.4434H108.659C108.853 89.0827 109.028 88.7137 109.164 88.323H106.395Z" fill="#5D666A"/>
<path d="M94.8968 33.7834L66.1524 4.21216L35.7887 35.4494" fill="#2F2A28"/>
<path d="M51.173 39.1985V59.1903H79.5125V38.3655L51.173 39.1985Z" fill="#2F2A28"/>
<path d="M68.5817 6.67623C68.5817 6.67623 75.2374 -3.84364 81.6267 6.67623C81.6267 6.67623 87.2169 -2.94234 92.5415 6.67623C97.8653 16.2948 81.3596 21.7051 81.3596 21.7051C81.3596 21.7051 68.5817 18.3989 68.5817 6.67623Z" fill="#2F2A28" stroke="white" stroke-width="4"/>
</svg>
