<svg width="54" height="58" viewBox="0 0 54 58" fill="none" xmlns="http://www.w3.org/2000/svg">
<path d="M38.6714 51.1643C38.6714 53.8346 36.506 56 33.8357 56H6.8357C4.1654 56 2 53.8346 2 51.1643V6.8357C2 4.1654 4.1654 2 6.8357 2H33.8357C36.506 2 38.6714 4.1654 38.6714 6.8357V51.1643Z" stroke="#2D483D" stroke-width="4"/>
<path d="M8.4469 16.9107C12.2289 15.9522 14.0049 16.8398 17.9287 17.3123C21.9294 17.795 25.8639 15.8098 29.403 16.9107" stroke="#2D483D" stroke-width="2"/>
<path d="M9.29199 25.7911C13.0733 24.8326 14.8499 25.7196 18.7737 26.1921C22.7744 26.6747 26.709 24.6895 30.2481 25.7911" stroke="#2D483D" stroke-width="2"/>
<path d="M10.5448 35.6076C14.3262 34.6491 16.1021 35.5367 20.0259 36.0099C24.0266 36.4925 27.9611 34.5066 31.5002 35.6076" stroke="#2D483D" stroke-width="2"/>
<path d="M34.2353 42.6504C33.1958 44.074 31.5603 44.6451 30.5802 43.9296C29.5988 43.2141 29.6447 41.4814 30.6842 40.0564L48.8619 15.1624C49.9007 13.7416 51.5369 13.1698 52.517 13.8853C53.4978 14.6015 53.4519 16.3335 52.4144 17.7598L34.2353 42.6504Z" fill="#2D483D"/>
</svg>
