<svg width="45" height="47" viewBox="0 0 45 47" fill="none" xmlns="http://www.w3.org/2000/svg">
<path d="M5.51001 27.9508C5.51001 27.9508 6.85553 13.1788 20.8968 13.1788C20.8968 13.1788 33.2411 12.7693 34.7621 26.6931" stroke="white" stroke-width="4"/>
<path d="M5.68555 37.14C7.72102 37.14 9.3711 34.9134 9.3711 32.1669C9.3711 29.4203 7.72102 27.1937 5.68555 27.1937C3.65008 27.1937 2 29.4203 2 32.1669C2 34.9134 3.65008 37.14 5.68555 37.14Z" fill="white" stroke="white" stroke-width="4"/>
<path d="M34.1186 36.0178C36.1541 36.0178 37.8041 33.7915 37.8041 31.0452C37.8041 28.2989 36.1541 26.0726 34.1186 26.0726C32.0831 26.0726 30.433 28.2989 30.433 31.0452C30.433 33.7915 32.0831 36.0178 34.1186 36.0178Z" fill="white" stroke="white" stroke-width="4"/>
<path d="M31.369 37.5753C31.369 37.5753 31.9535 40.3834 25.051 43.8934" stroke="white" stroke-width="2"/>
<path d="M24.1729 46C24.9807 46 25.6354 45.45 25.6354 44.7715C25.6354 44.093 24.9807 43.543 24.1729 43.543C23.3652 43.543 22.7104 44.093 22.7104 44.7715C22.7104 45.45 23.3652 46 24.1729 46Z" stroke="white" stroke-width="2"/>
<path d="M33.9166 10.2431C39.0864 10.2431 43.2773 8.17398 43.2773 5.62156C43.2773 3.06914 39.0864 1 33.9166 1C28.7469 1 24.556 3.06914 24.556 5.62156C24.556 8.17398 28.7469 10.2431 33.9166 10.2431Z" stroke="white" stroke-width="2"/>
<path d="M26.1423 12.5438L25.1371 7.68988L29.6253 9.79533L26.1423 12.5438Z" fill="white"/>
<path d="M29.3418 6.55757C29.8911 6.55757 30.3363 6.13851 30.3363 5.62156C30.3363 5.10461 29.8911 4.68555 29.3418 4.68555C28.7926 4.68555 28.3473 5.10461 28.3473 5.62156C28.3473 6.13851 28.7926 6.55757 29.3418 6.55757Z" fill="white" stroke="white" stroke-width="2"/>
<path d="M33.3581 6.55757C33.9077 6.55757 34.3532 6.13851 34.3532 5.62156C34.3532 5.10461 33.9077 4.68555 33.3581 4.68555C32.8085 4.68555 32.363 5.10461 32.363 5.62156C32.363 6.13851 32.8085 6.55757 33.3581 6.55757Z" fill="white" stroke="white" stroke-width="2"/>
<path d="M37.5702 6.55757C38.1198 6.55757 38.5653 6.13851 38.5653 5.62156C38.5653 5.10461 38.1198 4.68555 37.5702 4.68555C37.0206 4.68555 36.5751 5.10461 36.5751 5.62156C36.5751 6.13851 37.0206 6.55757 37.5702 6.55757Z" fill="white" stroke="white" stroke-width="2"/>
</svg>
